<svg xmlns="http://www.w3.org/2000/svg" viewBox="0 0 128 128" width="128" height="128" aria-hidden="true">
  <defs>
    <linearGradient id="gc" x1="0" y1="0" x2="1" y2="1">
      <stop offset="0%" stop-color="#6366f1"/>
      <stop offset="100%" stop-color="#4f46e5"/>
    </linearGradient>
    <linearGradient id="pieceRed" x1="0" y1="0" x2="1" y2="1">
      <stop offset="0%" stop-color="#ef4444"/>
      <stop offset="100%" stop-color="#b91c1c"/>
    </linearGradient>
    <linearGradient id="pieceBlack" x1="0" y1="0" x2="1" y2="1">
      <stop offset="0%" stop-color="#4b5563"/>
      <stop offset="100%" stop-color="#1f2937"/>
    </linearGradient>
  </defs>
  <rect x="8" y="8" width="112" height="112" rx="16" fill="url(#gc)"/>
  <!-- Board 4x4 preview of dark squares -->
  <g transform="translate(22,22)">
    <rect x="0" y="0" width="84" height="84" rx="8" fill="#111827" opacity="0.2"/>
    <!-- dark squares -->
    <g fill="#111827" opacity="0.7">
      <rect x="0" y="0" width="21" height="21" rx="3"/>
      <rect x="42" y="0" width="21" height="21" rx="3"/>
      <rect x="21" y="21" width="21" height="21" rx="3"/>
      <rect x="63" y="21" width="21" height="21" rx="3"/>
      <rect x="0" y="42" width="21" height="21" rx="3"/>
      <rect x="42" y="42" width="21" height="21" rx="3"/>
      <rect x="21" y="63" width="21" height="21" rx="3"/>
      <rect x="63" y="63" width="21" height="21" rx="3"/>
    </g>
    <!-- pieces -->
    <g>
      <circle cx="10.5" cy="10.5" r="8" fill="url(#pieceBlack)"/>
      <circle cx="52.5" cy="10.5" r="8" fill="url(#pieceBlack)"/>
      <circle cx="31.5" cy="31.5" r="8" fill="url(#pieceRed)"/>
      <circle cx="73.5" cy="31.5" r="8" fill="url(#pieceRed)"/>
    </g>
  </g>
</svg>


