<svg xmlns="http://www.w3.org/2000/svg" viewBox="0 0 64 64" width="512" height="512">
  <defs>
    <linearGradient id="g" x1="0" x2="0" y1="0" y2="1">
      <stop offset="0%" stop-color="#f0d9b5"/>
      <stop offset="100%" stop-color="#b58863"/>
    </linearGradient>
  </defs>
  <rect x="4" y="4" width="56" height="56" rx="8" ry="8" fill="url(#g)" stroke="#7a5536" stroke-width="2"/>
  <g transform="translate(16,10)" fill="#2e2e2e">
    <path d="M16 0c4 0 7 3 7 7 0 2-1 4-2 5 2 1 3 3 3 5 0 3-2 6-5 7l3 6h-12l3-6c-3-1-5-4-5-7 0-2 1-4 3-5-1-1-2-3-2-5 0-4 3-7 7-7z"/>
    <rect x="6" y="30" width="20" height="3" rx="1.5"/>
    <rect x="4" y="35" width="24" height="4" rx="2"/>
    <rect x="2" y="41" width="28" height="5" rx="2.5"/>
  </g>
</svg>


