<svg xmlns="http://www.w3.org/2000/svg" viewBox="0 0 64 64" width="512" height="512">
  <defs>
    <linearGradient id="wood" x1="0" x2="0" y1="0" y2="1">
      <stop offset="0%" stop-color="#deb887"/>
      <stop offset="100%" stop-color="#b38b5d"/>
    </linearGradient>
  </defs>
  <rect x="4" y="4" width="56" height="56" rx="8" ry="8" fill="url(#wood)" stroke="#7a5536" stroke-width="2"/>
  <g stroke="#7a5536" stroke-width="1.2" opacity="0.7">
    <!-- Draw 9x9 grid -->
    <!-- Vertical lines -->
    <g>
      <path d="M 16 12 L 16 52"/>
      <path d="M 22 12 L 22 52"/>
      <path d="M 28 12 L 28 52"/>
      <path d="M 34 12 L 34 52"/>
      <path d="M 40 12 L 40 52"/>
      <path d="M 46 12 L 46 52"/>
    </g>
    <!-- Horizontal lines -->
    <g>
      <path d="M 12 16 L 52 16"/>
      <path d="M 12 22 L 52 22"/>
      <path d="M 12 28 L 52 28"/>
      <path d="M 12 34 L 52 34"/>
      <path d="M 12 40 L 52 40"/>
      <path d="M 12 46 L 52 46"/>
    </g>
  </g>
  <!-- Stones -->
  <circle cx="22" cy="22" r="3.5" fill="#000"/>
  <circle cx="34" cy="28" r="3.5" fill="#fff" stroke="#bbb"/>
  <circle cx="28" cy="40" r="3.5" fill="#000"/>
  <circle cx="40" cy="16" r="3.5" fill="#fff" stroke="#bbb"/>
</svg>


