<svg xmlns="http://www.w3.org/2000/svg" viewBox="0 0 128 128" width="128" height="128" aria-hidden="true">
  <defs>
    <linearGradient id="g" x1="0" y1="0" x2="1" y2="1">
      <stop offset="0%" stop-color="#60a5fa"/>
      <stop offset="100%" stop-color="#3b82f6"/>
    </linearGradient>
  </defs>
  <rect x="8" y="8" width="112" height="112" rx="16" fill="url(#g)"/>
  <g fill="#ffffff">
    <circle cx="44" cy="44" r="8" opacity="0.9"/>
    <circle cx="64" cy="32" r="6" opacity="0.8"/>
    <circle cx="84" cy="48" r="5" opacity="0.75"/>
    <circle cx="36" cy="72" r="4" opacity="0.7"/>
    <circle cx="92" cy="84" r="7" opacity="0.85"/>
  </g>
  <path d="M64 40c-12 0-22 10-22 22h10c0-6.6 5.4-12 12-12s12 5.4 12 12c0 10-16 9.5-16 23h10c0-8.5 16-10 16-23 0-12-10-22-22-22z" fill="#ffffff"/>
  <rect x="56" y="92" width="16" height="8" rx="4" fill="#ffffff"/>
</svg>

