<svg xmlns="http://www.w3.org/2000/svg" viewBox="0 0 128 128" width="128" height="128" aria-hidden="true">
  <defs>
    <linearGradient id="gs" x1="0" y1="0" x2="1" y2="1">
      <stop offset="0%" stop-color="#f59e0b"/>
      <stop offset="100%" stop-color="#f97316"/>
    </linearGradient>
  </defs>
  <rect x="8" y="8" width="112" height="112" rx="16" fill="url(#gs)"/>
  <g stroke="#ffffff" stroke-width="4" stroke-linecap="round" opacity="0.95">
    <!-- 9x9 grid with thicker 3x3 lines -->
    <!-- vertical lines -->
    <line x1="24" y1="20" x2="24" y2="108"/>
    <line x1="36" y1="20" x2="36" y2="108"/>
    <line x1="48" y1="20" x2="48" y2="108"/>
    <line x1="60" y1="20" x2="60" y2="108"/>
    <line x1="72" y1="20" x2="72" y2="108"/>
    <line x1="84" y1="20" x2="84" y2="108"/>
    <line x1="96" y1="20" x2="96" y2="108"/>
    <line x1="108" y1="20" x2="108" y2="108"/>
    <!-- horizontal lines -->
    <line x1="20" y1="24" x2="108" y2="24"/>
    <line x1="20" y1="36" x2="108" y2="36"/>
    <line x1="20" y1="48" x2="108" y2="48"/>
    <line x1="20" y1="60" x2="108" y2="60"/>
    <line x1="20" y1="72" x2="108" y2="72"/>
    <line x1="20" y1="84" x2="108" y2="84"/>
    <line x1="20" y1="96" x2="108" y2="96"/>
    <line x1="20" y1="108" x2="108" y2="108"/>
  </g>
  <!-- Thick 3x3 box borders -->
  <g stroke="#ffffff" stroke-width="6" opacity="1">
    <rect x="20" y="20" width="88" height="88" fill="none" rx="4"/>
    <line x1="48" y1="20" x2="48" y2="108"/>
    <line x1="76" y1="20" x2="76" y2="108"/>
    <line x1="20" y1="48" x2="108" y2="48"/>
    <line x1="20" y1="76" x2="108" y2="76"/>
  </g>
  <!-- A few digits for vibe -->
  <g fill="#ffffff" font-family="ui-sans-serif, system-ui, -apple-system, Segoe UI, Roboto" font-weight="700">
    <text x="30" y="42" font-size="12">5</text>
    <text x="58" y="42" font-size="12">8</text>
    <text x="86" y="42" font-size="12">3</text>
    <text x="30" y="70" font-size="12">1</text>
    <text x="58" y="70" font-size="12">4</text>
    <text x="86" y="70" font-size="12">7</text>
    <text x="30" y="98" font-size="12">9</text>
    <text x="58" y="98" font-size="12">2</text>
    <text x="86" y="98" font-size="12">6</text>
  </g>
</svg>


